<?xml version="1.0" standalone="no"?>
<!DOCTYPE svg PUBLIC "-//W3C//DTD SVG 20010904//EN"
 "http://www.w3.org/TR/2001/REC-SVG-20010904/DTD/svg10.dtd">
<svg version="1.0" xmlns="http://www.w3.org/2000/svg"
 width="1080.000000pt" height="1080.000000pt" viewBox="0 0 1080.000000 1080.000000"
 preserveAspectRatio="xMidYMid meet">
<metadata>
Created by potrace 1.14, written by Peter Selinger 2001-2017
</metadata>
<g transform="translate(0.000000,1080.000000) scale(0.100000,-0.100000)"
fill="#000000" stroke="none">
<path d="M0 5400 l0 -5400 3699 0 3698 0 -3 22 c-12 70 -17 88 -26 88 -9 0 -8
12 6 55 2 6 7 25 11 43 9 38 23 40 49 6 16 -23 18 -39 13 -123 -2 -53 -2 -76
2 -51 l6 45 8 -42 c4 -24 12 -43 19 -43 11 0 8 50 -12 159 -5 30 -12 84 -15
120 -4 36 -11 93 -16 126 -6 33 -11 67 -11 75 0 8 -6 49 -13 90 -7 41 -16 109
-19 150 -6 67 -19 134 -46 225 -4 17 -12 46 -15 65 -4 19 -18 51 -31 71 -12
20 -40 74 -62 120 -22 46 -51 100 -64 119 -90 132 -196 708 -212 1145 -7 213
-1 245 96 451 46 99 99 201 116 226 18 26 32 49 32 53 0 3 10 22 23 43 13 20
41 66 62 102 71 120 173 229 215 230 39 0 253 118 358 197 165 123 237 147
309 104 46 -29 68 -82 68 -167 l0 -72 25 13 c84 43 204 81 283 90 31 4 57 11
57 17 0 6 -12 7 -31 3 -22 -5 -29 -4 -25 4 4 6 26 11 49 12 l42 1 -45 10 c-43
10 -44 10 -20 23 22 12 22 13 4 18 -18 5 -18 5 1 6 18 1 20 7 17 46 -4 43 -3
45 24 45 l28 0 -27 28 c-15 15 -27 39 -27 53 0 14 -11 36 -24 48 -26 24 -25
52 2 84 17 20 17 21 -20 33 -35 11 -40 28 -11 32 27 4 54 33 35 39 -8 3 -6 10
8 21 19 17 19 17 -5 47 -14 17 -25 24 -25 17 0 -7 -5 -10 -10 -7 -15 9 -52 85
-42 85 15 0 21 116 8 153 -12 35 -55 97 -68 97 -11 0 3 -34 20 -47 21 -17 17
-72 -7 -97 l-20 -20 -16 38 c-9 21 -15 50 -14 65 2 14 -5 38 -14 52 -19 28
-39 94 -57 182 -16 78 -34 75 -25 -5 3 -35 9 -71 11 -80 3 -10 1 -18 -5 -18
-6 0 -11 -15 -12 -32 l-1 -33 -14 33 c-14 32 -28 40 -39 22 -3 -5 -13 -10 -22
-10 -11 0 -13 5 -7 17 9 23 6 91 -6 112 -10 18 -6 27 -41 -91 -13 -43 -27 -78
-31 -78 -15 0 -13 92 2 120 13 25 -7 51 -34 44 -31 -7 -39 7 -37 70 1 52 -14
106 -30 106 -5 0 -9 -6 -9 -13 0 -17 -36 -47 -58 -47 -21 0 -44 14 -43 26 1 5
-4 9 -9 9 -6 0 -14 6 -19 13 -15 25 -32 -47 -42 -179 -18 -217 12 -602 57
-737 31 -95 9 -170 -67 -232 -74 -59 -81 -61 -281 -69 -214 -8 -225 -12 -265
-92 -19 -36 -23 -58 -21 -126 3 -108 -12 -131 -103 -156 -65 -18 -162 -16
-174 4 -14 22 -22 4 -28 -61 -5 -56 -12 -79 -37 -115 -43 -62 -72 -75 -173
-75 -128 0 -151 -19 -282 -240 -73 -122 -126 -184 -188 -218 -43 -23 -206 -22
-297 2 -100 26 -232 110 -385 246 -99 87 -250 200 -268 200 -8 0 -17 -7 -20
-15 -4 -8 -25 -28 -49 -45 -24 -17 -70 -57 -103 -88 -33 -31 -97 -88 -142
-125 -45 -37 -85 -76 -88 -87 -3 -11 -2 -34 3 -53 14 -51 7 -93 -22 -127 -14
-18 -26 -35 -26 -39 0 -9 -78 -61 -91 -61 -6 0 -29 -10 -52 -22 -72 -37 -268
-37 -567 2 -88 11 -477 105 -580 140 -72 24 -270 103 -300 119 -19 11 -59 26
-89 35 -30 9 -64 22 -75 29 -12 7 -48 24 -81 37 -33 14 -79 34 -102 47 -24 12
-50 20 -58 17 -8 -4 -15 -1 -15 5 0 6 -6 11 -13 11 -22 0 -283 163 -392 245
-33 25 -76 56 -95 70 -64 44 -154 116 -200 159 -25 22 -59 50 -75 60 -42 27
-185 167 -185 181 0 11 50 56 161 145 109 87 469 444 565 560 30 36 73 88 96
116 96 116 189 260 282 439 31 60 62 113 69 118 9 7 9 10 0 13 -11 5 -2 20 35
59 6 8 12 18 12 24 0 6 5 11 10 11 6 0 10 11 10 23 0 13 8 31 18 40 20 19 42
22 42 8 0 -5 2 -16 6 -24 3 -8 -7 -29 -22 -46 -34 -41 -26 -50 15 -15 26 21
31 32 26 51 -5 22 -3 24 22 21 18 -2 27 2 26 10 -2 6 2 12 8 12 7 0 9 10 5 25
-7 27 23 84 63 119 11 11 21 25 21 32 0 7 11 23 24 36 13 13 39 56 57 95 19
40 40 73 47 73 14 0 17 -17 4 -22 -5 -1 -12 -20 -15 -40 -4 -29 -2 -38 9 -38
12 0 15 5 14 25 -1 3 8 17 20 32 11 14 20 32 20 39 0 8 6 14 13 14 9 0 9 2 -1
9 -11 6 -10 10 3 15 20 7 19 2 -13 -111 -11 -40 -19 -73 -17 -73 6 0 46 91 55
125 12 43 51 157 60 175 13 26 35 17 35 -15 1 -16 4 -37 7 -45 3 -8 14 -48 24
-87 10 -40 22 -73 27 -73 4 0 5 5 2 10 -12 19 6 169 19 164 16 -6 34 34 42 89
8 59 24 107 35 107 5 0 9 28 9 63 0 64 14 106 24 77 3 -8 7 -46 9 -83 7 -109
20 -98 31 27 3 32 10 64 15 69 8 8 11 7 12 -3 0 -8 2 -66 4 -128 2 -63 5 -116
8 -118 2 -3 8 12 12 33 6 37 23 96 50 178 8 22 16 94 20 160 19 383 126 572
401 709 227 113 299 113 470 -3 77 -52 141 -123 188 -211 31 -59 77 -110 97
-110 26 0 100 -38 121 -62 16 -19 19 -19 49 -4 18 9 40 14 49 11 10 -3 23 1
30 10 7 8 16 15 20 15 12 0 0 -38 -17 -52 -12 -10 -18 -9 -28 5 -15 21 -25 22
-25 3 0 -14 23 -28 50 -30 8 -1 16 -9 18 -19 3 -15 0 -18 -16 -13 -11 4 -23 2
-27 -4 -3 -6 3 -10 14 -10 23 0 29 -28 10 -47 -7 -7 -9 -22 -4 -40 l7 -28 13
30 c51 115 67 145 75 145 6 0 10 -5 10 -11 0 -14 39 -7 95 17 39 16 40 17 15
26 -13 5 -26 11 -28 13 -9 8 24 30 48 32 14 1 57 7 95 13 39 6 83 12 98 14
113 15 126 36 24 36 -87 0 -103 14 -37 31 l53 14 -33 6 c-18 4 -43 3 -56 -1
-23 -9 -64 -3 -64 10 0 4 25 11 56 15 52 6 55 8 50 30 -5 21 -1 24 43 35 28 6
59 9 70 5 30 -9 57 2 58 25 1 14 -4 20 -18 20 -17 0 -18 3 -9 20 13 24 34 30
122 34 37 2 74 9 83 16 9 7 47 15 85 16 37 2 87 11 110 20 22 9 44 14 47 10 6
-6 -18 -182 -39 -281 -6 -27 -10 -71 -11 -97 0 -27 -4 -48 -9 -48 -4 0 -8 -7
-8 -16 0 -8 4 -12 10 -9 6 3 10 1 10 -4 0 -6 -5 -11 -12 -11 -6 0 -1 -9 12
-20 27 -23 31 -20 49 35 25 80 35 97 59 106 23 9 24 13 18 56 -3 26 -12 51
-19 55 -9 6 -8 11 5 18 10 6 20 27 24 48 8 39 31 102 39 102 7 0 -6 -103 -15
-125 -5 -11 -11 -51 -14 -90 -2 -38 -7 -113 -11 -165 -4 -52 -8 -107 -9 -122
0 -15 -7 -33 -14 -40 -11 -11 -16 -10 -26 4 -19 26 -26 11 -26 -58 0 -35 -4
-65 -10 -69 -5 -3 -9 -64 -9 -139 1 -77 -4 -149 -11 -173 -12 -39 -6 -103 8
-89 3 4 12 42 18 84 25 159 60 302 75 302 18 0 22 -54 9 -135 -11 -71 -11
-130 1 -170 1 -5 -1 -58 -5 -116 -8 -108 -3 -153 16 -147 14 5 21 32 20 76 0
18 3 30 7 27 11 -6 31 40 31 69 0 26 12 56 50 126 13 25 23 52 22 60 -2 9 9
27 23 40 14 13 25 28 25 34 0 6 8 16 19 23 17 10 92 154 136 261 10 23 22 42
27 42 12 0 0 -97 -42 -340 -5 -30 -12 -91 -15 -135 -3 -44 -10 -102 -15 -130
-14 -80 -22 -333 -10 -315 5 8 10 31 10 50 0 59 10 81 34 78 20 -3 21 -10 26
-158 5 -155 13 -196 31 -169 5 8 7 40 3 71 -6 60 12 161 28 152 4 -3 8 -35 8
-72 1 -75 18 -68 21 9 1 24 4 53 7 64 4 17 7 14 17 -15 13 -39 27 -42 37 -8 6
23 6 23 7 -2 1 -15 -4 -31 -11 -38 -9 -10 -8 -16 5 -29 13 -14 17 -14 20 -2 3
8 13 42 23 77 14 52 21 63 36 59 10 -3 18 -1 18 4 0 5 -4 9 -10 9 -15 0 -12
41 6 107 9 32 20 83 25 114 4 31 13 68 19 83 5 15 10 40 10 56 0 16 4 31 9 34
5 3 8 23 6 44 -1 20 -1 29 2 20 7 -30 18 -20 31 29 9 32 10 49 2 57 -7 7 -10
6 -10 -2 0 -7 -4 -12 -10 -12 -21 0 -9 28 15 34 22 6 25 12 25 50 0 48 33 168
53 188 30 32 66 87 91 139 14 31 40 75 56 97 17 23 30 46 30 51 0 5 7 15 16
22 14 11 77 97 109 147 6 9 15 22 20 28 6 7 42 56 80 111 39 54 90 116 114
138 55 50 52 47 103 124 43 64 71 91 84 79 3 -4 -6 -22 -20 -41 -14 -19 -26
-43 -26 -54 0 -11 -10 -35 -23 -54 -29 -44 -97 -210 -97 -239 0 -19 -2 -20
-15 -10 -13 11 -15 8 -15 -13 0 -14 -10 -34 -22 -44 -24 -20 -40 -42 -60 -83
-7 -14 -15 -27 -18 -30 -9 -7 -60 -129 -60 -142 0 -6 7 -5 16 3 15 12 16 10 9
-21 -4 -19 -8 -35 -9 -35 -29 0 -91 -91 -102 -150 -3 -19 -10 -38 -15 -41 -9
-5 -49 -91 -49 -106 0 -5 -11 -33 -24 -61 -23 -50 -56 -128 -91 -214 -25 -60
-11 -77 14 -18 47 108 97 204 148 282 29 46 53 85 53 89 0 5 53 91 91 146 11
15 19 31 19 36 0 5 15 26 33 48 18 21 43 59 54 84 11 25 31 54 43 65 13 11 33
36 45 56 21 33 120 150 193 228 17 19 34 32 38 28 4 -4 10 -42 15 -84 4 -43
12 -127 19 -188 16 -153 8 -252 -36 -469 -8 -38 -14 -74 -13 -80 1 -19 22 37
35 94 41 180 52 234 63 315 7 50 17 112 22 138 5 26 9 66 9 87 0 30 4 40 16
40 14 0 15 -17 8 -157 -10 -234 -10 -443 3 -669 16 -304 31 -292 32 26 1 151
6 282 12 305 5 22 13 67 16 100 3 33 9 65 14 71 4 5 13 44 20 85 6 40 19 99
29 129 10 30 23 75 31 100 7 25 16 50 21 56 4 6 13 35 19 65 6 30 25 78 40
108 16 30 29 65 29 79 0 36 22 102 31 96 5 -3 9 4 9 15 0 12 5 21 11 21 6 0 9
6 6 14 -5 13 11 42 44 80 4 5 5 -9 2 -30 -3 -27 2 -54 16 -87 12 -27 21 -62
21 -79 0 -16 8 -42 19 -56 24 -35 39 -171 19 -183 -10 -7 -9 -9 5 -9 11 0 17
-8 17 -24 0 -13 3 -31 6 -40 4 -11 1 -16 -10 -16 -9 0 -19 12 -22 27 -7 25 -8
25 -21 7 -7 -10 -11 -24 -9 -31 3 -7 -1 -10 -8 -7 -15 6 -33 -14 -35 -38 -2
-33 -2 -42 5 -180 5 -97 4 -138 -4 -138 -6 0 -13 19 -16 43 -11 87 -15 113
-24 152 -9 37 -10 38 -11 9 0 -17 4 -56 10 -88 17 -94 1 -102 -31 -16 -34 88
-39 64 -15 -63 19 -97 19 -157 2 -182 -8 -11 -17 -29 -20 -40 -3 -11 -17 -53
-31 -94 -14 -40 -23 -77 -21 -81 3 -4 -2 -13 -10 -20 -10 -8 -15 -30 -15 -61
0 -27 -4 -49 -10 -49 -5 0 -10 -7 -10 -15 0 -8 5 -15 10 -15 6 0 5 -8 -2 -20
-7 -11 -21 -20 -30 -20 -12 0 -18 -8 -18 -22 0 -18 2 -20 10 -8 12 19 22 8 14
-14 -4 -9 -12 -15 -19 -12 -14 5 -25 -14 -25 -42 1 -15 2 -14 12 2 10 18 11
18 23 -5 16 -28 9 -45 -11 -28 -11 9 -14 8 -14 -4 0 -9 7 -20 16 -25 15 -8 22
-27 23 -64 1 -24 22 -23 28 2 3 11 11 20 18 20 15 0 17 -5 40 -105 8 -38 22
-95 30 -125 8 -30 17 -67 20 -82 3 -16 12 -28 20 -28 8 0 15 -8 16 -17 0 -10
3 -13 5 -7 7 16 54 4 54 -13 0 -13 -2 -13 -16 -2 -16 13 -17 8 -12 -63 4 -57
2 -75 -7 -72 -7 3 -15 -4 -18 -15 -3 -13 0 -21 8 -21 10 0 9 -11 -4 -52 -10
-29 -23 -71 -29 -93 -24 -92 -60 -176 -90 -212 -32 -39 -39 -53 -23 -53 11 0
101 115 101 129 0 6 4 11 9 11 5 0 12 15 15 34 4 19 10 36 15 38 9 4 71 181
71 206 1 9 7 28 15 42 l14 25 0 -25 c0 -27 -10 -79 -29 -145 -6 -22 -15 -56
-20 -75 -13 -50 -38 -97 -55 -104 -8 -3 -15 -11 -15 -18 0 -9 3 -9 10 2 14 20
4 -30 -16 -82 -12 -33 -12 -38 0 -38 18 0 26 12 48 74 10 28 28 66 41 85 13
20 27 54 30 76 6 34 15 59 59 148 5 9 11 38 15 63 5 37 8 43 19 32 10 -10 10
-26 -1 -83 -8 -38 -14 -89 -15 -113 0 -23 -9 -61 -20 -82 -11 -22 -18 -40 -15
-40 3 0 -1 -13 -10 -30 -8 -16 -15 -36 -15 -45 0 -18 -16 -57 -56 -138 -13
-27 -24 -56 -24 -65 0 -10 -9 -32 -21 -51 -30 -50 -8 -61 24 -12 15 22 27 45
27 51 0 6 16 41 35 78 70 135 154 319 175 385 12 37 26 67 31 67 5 0 9 8 9 17
0 38 24 83 45 83 15 0 28 15 48 53 65 124 78 147 87 147 11 0 5 -17 -39 -114
-33 -74 -36 -86 -21 -86 6 0 10 5 10 10 0 6 10 27 23 48 36 59 58 123 47 137
-12 15 -4 41 16 49 8 3 14 16 14 28 0 13 6 32 14 43 7 11 16 37 20 57 4 21 11
40 17 44 13 8 6 -135 -9 -215 -36 -179 -67 -285 -114 -389 -15 -34 -28 -65
-28 -67 0 -13 21 -3 27 13 4 9 17 32 30 51 13 19 28 52 33 75 6 22 17 55 26
72 8 17 19 46 24 65 5 19 21 68 35 109 15 41 28 86 30 101 5 40 28 110 34 104
10 -11 8 -80 -3 -94 -7 -9 -10 -48 -9 -99 1 -47 -1 -91 -6 -96 -5 -6 -11 -38
-14 -72 -2 -33 -14 -81 -26 -107 -11 -25 -21 -52 -21 -59 0 -7 -7 -22 -15 -32
-8 -11 -15 -27 -15 -37 0 -9 -12 -38 -28 -64 -65 -112 -82 -141 -89 -155 -4
-8 -15 -24 -25 -34 -19 -21 -25 -52 -8 -41 5 3 10 10 10 14 0 5 17 26 38 48
91 96 182 241 182 290 0 12 4 24 9 27 4 3 11 19 14 36 4 16 11 30 17 30 6 0 9
-8 6 -18 -13 -48 -37 -193 -34 -204 13 -38 59 132 89 327 5 33 16 83 24 112
11 38 12 58 5 79 -9 22 -8 31 5 43 13 13 15 13 15 1 0 -13 2 -13 9 -1 6 9 6
22 0 32 -13 25 -11 32 5 26 10 -4 18 4 25 26 10 35 23 191 26 335 1 55 6 97
13 104 7 7 12 24 12 39 0 15 7 43 15 62 8 20 15 47 15 60 0 13 9 32 21 43 20
18 22 18 34 1 6 -9 17 -17 23 -17 5 0 12 -11 16 -23 3 -13 21 -39 41 -58 19
-19 35 -38 35 -43 0 -15 108 -191 129 -210 14 -13 21 -37 26 -89 5 -46 14 -81
26 -96 11 -13 19 -32 19 -41 0 -10 7 -33 15 -51 l14 -34 1 38 c0 36 -19 161
-39 250 -5 21 -4 40 0 43 5 3 9 60 9 127 0 67 5 151 10 188 17 116 10 349 -11
417 -6 18 -9 39 -6 46 3 8 1 18 -6 25 -6 6 -13 60 -15 121 -3 60 -8 110 -13
110 -5 0 -9 7 -9 16 0 27 22 10 38 -31 9 -22 27 -51 41 -65 33 -32 128 -222
137 -272 3 -21 11 -38 18 -38 19 -1 47 -48 52 -87 2 -20 9 -55 15 -77 6 -23
15 -57 19 -76 19 -76 55 -554 46 -606 -4 -17 -3 -42 2 -54 14 -37 22 111 22
398 0 161 -4 252 -10 252 -5 0 -10 16 -10 36 0 26 3 33 13 27 6 -4 20 -6 30
-5 21 4 23 -16 2 -24 -17 -7 -21 -34 -5 -34 6 0 10 -10 10 -22 0 -32 14 -50
33 -43 9 4 24 -2 36 -14 12 -12 21 -16 21 -11 0 6 9 10 20 10 17 0 20 -7 20
-40 0 -33 -3 -40 -20 -40 -13 0 -20 -7 -20 -20 0 -17 7 -20 39 -20 28 0 41 -5
46 -17 3 -10 1 -19 -4 -21 -6 -2 -11 -21 -11 -43 0 -21 -4 -39 -10 -39 -5 0
-10 18 -10 40 0 33 -3 40 -19 40 -11 0 -25 2 -33 5 -10 4 -12 -10 -10 -65 2
-38 8 -70 13 -70 5 0 9 5 9 12 0 6 7 3 15 -8 14 -19 15 -18 35 6 l20 25 0 -32
c0 -18 5 -33 10 -33 6 0 10 33 10 80 0 47 4 80 10 80 6 0 10 7 10 16 0 8 5 12
10 9 13 -8 13 -182 0 -187 -5 -1 -11 -29 -12 -61 -2 -48 1 -61 20 -79 l22 -22
0 22 c0 19 5 22 39 22 23 0 41 5 43 12 10 28 26 -32 32 -119 7 -90 7 -93 -13
-93 -20 0 -21 -6 -21 -80 0 -73 2 -80 20 -80 28 0 25 -20 -11 -58 -30 -32 -31
-34 -24 -107 5 -53 4 -75 -4 -75 -6 0 -11 17 -11 39 0 32 -4 39 -23 43 l-23 4
13 -98 c14 -113 18 -122 41 -109 12 6 24 2 42 -15 l25 -24 -35 0 c-26 0 -31
-3 -22 -12 18 -18 16 -105 -3 -112 -8 -3 -15 -12 -15 -19 0 -8 7 -20 15 -27 8
-7 15 -19 15 -27 0 -22 28 -45 53 -43 47 4 78 0 72 -10 -9 -14 -45 -13 -45 2
0 6 -8 4 -19 -6 -15 -13 -20 -14 -24 -4 -3 7 -6 -3 -7 -22 -1 -19 -3 -39 -5
-45 -1 -5 -3 -17 -3 -26 -1 -8 -9 -24 -17 -35 -13 -18 -14 -17 -12 10 1 16 -3
31 -10 33 -15 5 -30 -47 -16 -56 5 -3 14 -44 20 -91 8 -68 8 -88 -3 -101 -23
-26 -17 -68 11 -81 38 -17 48 -1 34 60 -6 29 -15 52 -20 52 -5 0 -9 18 -9 40
0 57 27 55 33 -2 2 -25 4 -9 5 37 2 68 5 82 22 93 19 12 20 10 20 -63 0 -60 3
-75 15 -75 8 0 15 -7 15 -15 0 -10 -10 -15 -30 -15 -32 0 -36 -6 -20 -30 9
-13 10 -13 10 0 0 11 3 11 11 -3 9 -16 8 -128 -2 -187 -1 -8 -1 -90 -1 -182 2
-136 5 -166 15 -162 10 3 20 -14 34 -56 17 -52 18 -62 6 -69 -11 -6 -14 -26
-11 -87 2 -65 6 -79 21 -82 16 -3 17 24 17 452 0 399 -2 456 -15 456 -8 0 -15
7 -15 15 0 8 7 15 15 15 11 0 15 11 15 40 0 38 -2 40 -31 40 l-31 0 28 47 c27
46 28 55 32 201 l4 152 -42 0 c-43 0 -50 13 -17 34 12 8 22 7 37 -2 20 -12 20
-11 20 2898 l0 2910 -5400 0 -5400 0 0 -5400z m9634 3900 c24 -9 26 -14 26
-67 0 -32 -5 -74 -11 -93 -6 -19 -15 -66 -19 -105 -10 -74 -28 -166 -34 -172
-2 -2 -20 -6 -39 -10 l-36 -5 -3 58 c-4 74 9 229 22 270 6 17 11 48 12 70 1
62 24 77 82 54z m-56 -512 c1 -18 -2 -46 -6 -63 -6 -26 -7 -23 -12 25 -3 30
-4 61 -2 67 7 22 19 5 20 -29z m497 -139 c-10 -15 -25 -10 -19 6 4 8 10 12 15
9 5 -3 7 -10 4 -15z m172 -141 c-3 -8 -6 -5 -6 6 -1 11 2 17 5 13 3 -3 4 -12
1 -19z m53 7 c0 -8 -7 -15 -15 -15 -8 0 -15 7 -15 15 0 8 7 15 15 15 8 0 15
-7 15 -15z m-20 -56 c0 -11 -4 -17 -10 -14 -5 3 -10 13 -10 21 0 8 5 14 10 14
6 0 10 -9 10 -21z m-44 -83 c3 -14 4 -33 1 -43 -3 -12 -5 -8 -6 10 -1 20 -7
31 -21 34 -26 7 -26 23 0 23 12 0 22 -9 26 -24z m-116 -52 c0 -2 -9 -4 -20 -4
-11 0 -20 4 -20 9 0 5 9 7 20 4 11 -3 20 -7 20 -9z m-400 -444 c0 -5 -2 -10
-4 -10 -3 0 -8 5 -11 10 -3 6 -1 10 4 10 6 0 11 -4 11 -10z m440 -56 c0 -8 -4
-12 -10 -9 -5 3 -10 10 -10 16 0 5 5 9 10 9 6 0 10 -7 10 -16z m-313 -24 c3
-10 2 -11 -4 -4 -4 6 -15 14 -23 17 -11 5 -9 6 4 4 11 -1 21 -9 23 -17z m33
-31 c0 -6 -4 -7 -10 -4 -5 3 -10 11 -10 16 0 6 5 7 10 4 6 -3 10 -11 10 -16z
m53 -112 c-9 -14 -22 23 -15 42 4 10 8 8 14 -8 4 -13 5 -28 1 -34z m27 -37 c0
-11 7 -20 15 -20 8 0 15 8 15 17 0 12 3 14 11 6 14 -14 18 -124 4 -119 -5 2
-9 20 -7 41 3 35 2 37 -13 25 -14 -11 -17 -10 -22 8 -3 12 -9 22 -14 22 -5 0
-9 9 -9 20 0 11 5 20 10 20 6 0 10 -9 10 -20z m-1344 -325 c-6 -25 -14 -45
-18 -45 -5 0 -8 -9 -8 -21 0 -39 -25 -13 -28 30 -3 42 12 76 29 65 5 -3 9 2 9
10 0 9 6 13 13 10 10 -4 11 -14 3 -49z m-493 10 c-7 -21 -13 -19 -13 6 0 11 4
18 10 14 5 -3 7 -12 3 -20z m15 -123 c2 -6 -8 -10 -24 -9 -15 1 -29 8 -32 15
-3 9 5 12 24 9 15 -2 30 -9 32 -15z m432 8 c0 -5 -2 -10 -4 -10 -3 0 -8 5 -11
10 -3 6 -1 10 4 10 6 0 11 -4 11 -10z m-2095 -20 c-3 -5 -11 -10 -16 -10 -6 0
-7 5 -4 10 3 6 11 10 16 10 6 0 7 -4 4 -10z m1640 -30 c3 -6 -1 -13 -9 -16 -9
-3 -16 -18 -16 -33 0 -18 -3 -22 -9 -12 -5 7 -4 25 2 42 12 30 21 36 32 19z
m1835 -29 c0 -8 -19 -37 -21 -31 -6 33 -4 47 8 43 7 -3 13 -8 13 -12z m-1903
-20 c-4 -20 -2 -31 8 -35 24 -9 17 -44 -10 -62 -14 -9 -32 -29 -40 -43 -9 -16
-15 -20 -15 -11 -1 8 -3 25 -4 38 -2 12 1 22 6 22 4 0 8 10 8 23 0 18 2 19 10
7 9 -13 11 -13 19 0 6 9 6 17 1 20 -6 4 -5 19 2 38 15 40 22 41 15 3z m1962
-108 c1 -17 6 -35 11 -38 6 -3 10 -13 10 -21 0 -27 -19 -4 -50 59 -33 68 -36
87 -18 105 10 10 16 3 30 -30 9 -24 17 -57 17 -75z m-3289 -25 c-6 -56 -13
-125 -16 -153 -2 -27 -9 -66 -14 -85 -6 -19 -10 -50 -10 -67 0 -38 -28 -113
-42 -113 -5 0 -7 12 -4 28 3 15 8 50 11 77 4 28 18 118 31 200 42 258 66 321
44 113z m2217 90 c-3 -8 -6 -5 -6 6 -1 11 2 17 5 13 3 -3 4 -12 1 -19z m-2467
-17 c0 -10 -30 -24 -37 -17 -3 3 -2 9 2 15 8 13 35 15 35 2z m2490 -70 c0 -28
-20 4 -25 39 l-5 35 14 -30 c9 -16 15 -37 16 -44z m-2455 39 c0 -7 -10 -15
-22 -16 -25 -4 -29 6 -11 24 15 15 33 10 33 -8z m1571 -39 c-4 -5 -1 -11 6
-13 7 -3 8 -10 4 -17 -7 -10 -10 -10 -16 -1 -5 8 -11 -4 -15 -31 -5 -31 -20
-56 -54 -93 -26 -28 -60 -69 -76 -91 -34 -48 -65 -79 -71 -72 -6 5 28 71 39
75 4 2 7 8 7 14 0 6 11 26 25 44 14 18 25 36 25 40 0 11 100 142 113 148 18 7
19 7 13 -3z m-1571 -20 c-3 -6 -15 -11 -26 -11 -10 0 -19 -4 -19 -9 0 -13 -73
-22 -84 -11 -7 7 -1 10 15 10 13 0 34 6 45 14 18 13 64 25 73 20 1 -2 0 -7 -4
-13z m-180 -13 c-4 -10 -15 -13 -31 -10 -32 6 -31 20 4 24 34 4 34 4 27 -14z
m1645 -8 c0 -11 -7 -20 -15 -20 -18 0 -19 12 -3 28 16 16 18 15 18 -8z m-1640
-30 c0 -5 -5 -10 -11 -10 -5 0 -7 5 -4 10 3 6 8 10 11 10 2 0 4 -4 4 -10z
m1596 -27 c-10 -10 -19 5 -10 18 6 11 8 11 12 0 2 -7 1 -15 -2 -18z m2134 17
c8 -5 11 -10 5 -10 -5 0 -17 5 -25 10 -8 5 -10 10 -5 10 6 0 17 -5 25 -10z
m-1093 -32 c-3 -8 -6 -5 -6 6 -1 11 2 17 5 13 3 -3 4 -12 1 -19z m1113 -8 c0
-5 -4 -10 -10 -10 -5 0 -10 5 -10 10 0 6 5 10 10 10 6 0 10 -4 10 -10z m148
-23 c2 -10 -3 -17 -12 -17 -10 0 -16 9 -16 21 0 24 23 21 28 -4z m-4293 3 c-3
-5 -11 -10 -16 -10 -6 0 -7 5 -4 10 3 6 11 10 16 10 6 0 7 -4 4 -10z m3672
-32 c-3 -8 -6 -5 -6 6 -1 11 2 17 5 13 3 -3 4 -12 1 -19z m-3593 -18 c-5 -5
-30 -13 -54 -17 -57 -10 -250 -5 -250 6 0 5 64 9 142 10 78 1 144 4 147 6 2 3
9 5 15 5 6 0 7 -3 0 -10z m3606 -21 c0 -5 -4 -9 -10 -9 -5 0 -10 7 -10 16 0 8
5 12 10 9 6 -3 10 -10 10 -16z m-640 1 c0 -5 -2 -10 -4 -10 -3 0 -8 5 -11 10
-3 6 -1 10 4 10 6 0 11 -4 11 -10z m1177 -112 c-3 -8 -6 -5 -6 6 -1 11 2 17 5
13 3 -3 4 -12 1 -19z m-2357 -8 c0 -5 -2 -10 -4 -10 -3 0 -8 5 -11 10 -3 6 -1
10 4 10 6 0 11 -4 11 -10z m2063 -63 c9 -30 17 -71 17 -93 0 -21 8 -59 17 -84
29 -81 37 -491 10 -530 -15 -21 -16 -20 -27 37 -7 32 -15 65 -18 73 -3 8 -6
20 -7 25 -1 6 -10 28 -22 50 -22 42 -72 181 -118 329 -20 62 -25 91 -17 94 7
2 4 11 -8 25 -21 21 -26 52 -12 61 5 3 8 -4 8 -14 -1 -11 3 -19 8 -19 8 0 16
-13 64 -116 11 -22 31 -62 45 -90 14 -27 31 -72 38 -100 6 -27 16 -54 22 -60
6 -7 7 2 1 25 -5 19 -9 98 -9 175 0 77 -3 145 -7 151 -11 16 -20 114 -11 114
4 0 16 -24 26 -53z m-4103 23 c0 -5 -2 -10 -4 -10 -3 0 -8 5 -11 10 -3 6 -1
10 4 10 6 0 11 -4 11 -10z m-140 -20 c0 -5 -5 -10 -11 -10 -5 0 -7 5 -4 10 3
6 8 10 11 10 2 0 4 -4 4 -10z m4151 -30 c12 0 35 -59 44 -110 8 -47 -8 -50
-20 -3 -3 15 -15 45 -25 68 -9 22 -20 51 -24 65 -6 25 -6 25 5 3 7 -13 16 -23
20 -23z m459 26 c0 -3 -4 -8 -10 -11 -5 -3 -10 -1 -10 4 0 6 5 11 10 11 6 0
10 -2 10 -4z m-4800 -45 c0 -14 -18 -23 -31 -15 -8 4 -7 9 2 15 18 11 29 11
29 0z m-50 -11 c0 -5 -4 -10 -9 -10 -6 0 -13 5 -16 10 -3 6 1 10 9 10 9 0 16
-4 16 -10z m240 -9 c0 -5 -10 -11 -22 -15 -36 -9 -41 -7 -28 9 13 16 50 21 50
6z m4610 -62 c0 -6 -4 -7 -10 -4 -5 3 -10 11 -10 16 0 6 5 7 10 4 6 -3 10 -11
10 -16z m-403 -81 c-3 -8 -6 -5 -6 6 -1 11 2 17 5 13 3 -3 4 -12 1 -19z m420
-30 c-3 -8 -6 -5 -6 6 -1 11 2 17 5 13 3 -3 4 -12 1 -19z m-3420 -10 c-3 -8
-6 -5 -6 6 -1 11 2 17 5 13 3 -3 4 -12 1 -19z m2851 -39 c-3 -8 -7 -3 -11 10
-4 17 -3 21 5 13 5 -5 8 -16 6 -23z m-3140 -70 c-15 -10 -23 14 -13 39 6 14 8
13 16 -7 7 -18 6 -27 -3 -32z m3192 -23 c0 -5 -7 -1 -15 10 -8 10 -14 24 -14
29 0 6 6 1 14 -9 8 -11 15 -24 15 -30z m-3188 -28 c-11 -11 -32 -3 -32 14 0 5
7 8 15 4 8 -3 15 0 16 7 0 8 2 8 6 -1 3 -8 1 -18 -5 -24z m3213 -18 c8 -16 15
-33 15 -37 -1 -14 -40 39 -40 53 0 22 8 17 25 -16z m-3034 -107 c-8 -15 -10
-15 -11 -2 0 17 10 32 18 25 2 -3 -1 -13 -7 -23z m-8 -50 c-3 -10 -10 -23 -15
-30 -6 -7 -7 -17 -3 -22 7 -12 -35 -91 -49 -91 -4 0 -6 8 -3 18 23 70 42 119
50 130 14 18 27 15 20 -5z m2707 -73 c0 -5 -4 -10 -10 -10 -5 0 -10 5 -10 10
0 6 5 10 10 10 6 0 10 -4 10 -10z m-393 -62 c-3 -7 -5 -2 -5 12 0 14 2 19 5
13 2 -7 2 -19 0 -25z m458 12 c3 -11 2 -28 -4 -37 -8 -14 -10 -15 -11 -3 0 8
-3 25 -6 38 -8 27 12 30 21 2z m1115 -36 c0 -8 -4 -12 -10 -9 -5 3 -10 10 -10
16 0 5 5 9 10 9 6 0 10 -7 10 -16z m-3963 -26 c-3 -8 -6 -5 -6 6 -1 11 2 17 5
13 3 -3 4 -12 1 -19z m2783 -29 c0 -31 -4 -48 -10 -44 -5 3 -10 26 -10 51 0
24 5 44 10 44 6 0 10 -23 10 -51z m-403 -6 c-3 -10 -5 -2 -5 17 0 19 2 27 5
18 2 -10 2 -26 0 -35z m1603 6 c0 -5 -4 -9 -10 -9 -5 0 -10 7 -10 16 0 8 5 12
10 9 6 -3 10 -10 10 -16z m-1145 -96 c-4 -43 -12 -82 -17 -88 -10 -10 -5 70 8
138 11 54 16 26 9 -50z m-770 -151 c-10 -10 -14 4 -21 60 -4 31 -3 74 2 95 7
34 9 28 16 -56 5 -52 6 -96 3 -99z m302 136 c-2 -13 -4 -5 -4 17 -1 22 1 32 4
23 2 -10 2 -28 0 -40z m103 22 c0 -5 -5 -12 -11 -16 -12 -7 -31 15 -23 28 6 9
34 -1 34 -12z m-5620 5 c0 -61 -91 -300 -126 -332 -13 -12 -24 -26 -24 -31 0
-5 -7 -15 -15 -22 -9 -8 -15 -29 -15 -56 0 -49 -5 -54 -40 -43 -18 5 -20 7 -6
8 15 1 16 4 7 15 -7 8 -8 17 -3 20 6 3 13 23 16 43 10 56 17 74 25 69 4 -3 8
4 8 15 2 26 21 49 39 49 8 0 14 5 14 11 0 7 16 45 35 85 19 40 35 79 35 88 0
8 4 17 9 21 5 3 12 19 16 35 4 17 11 30 16 30 5 0 9 -2 9 -5z m160 -12 c-1
-14 -30 -47 -36 -41 -3 4 3 15 13 26 21 23 23 25 23 15z m3266 -91 c-12 -11
-16 6 -9 39 l8 34 3 -33 c2 -19 1 -36 -2 -40z m2071 16 c-3 -8 -6 -5 -6 6 -1
11 2 17 5 13 3 -3 4 -12 1 -19z m110 -42 c-3 -7 -9 -34 -12 -60 -4 -25 -12
-46 -17 -46 -6 0 -8 14 -4 36 5 22 3 41 -4 49 -15 18 -4 35 22 35 13 0 18 -5
15 -14z m-2087 -86 c0 -5 -4 -10 -10 -10 -5 0 -10 5 -10 10 0 6 5 10 10 10 6
0 10 -4 10 -10z m1687 -47 c-3 -10 -5 -4 -5 12 0 17 2 24 5 18 2 -7 2 -21 0
-30z m180 -5 c-3 -8 -6 -5 -6 6 -1 11 2 17 5 13 3 -3 4 -12 1 -19z m-5607 -42
c0 -27 -67 -162 -76 -153 -6 6 59 157 68 157 4 0 8 -2 8 -4z m5595 -113 c-3
-13 -10 -23 -15 -23 -12 0 -12 20 -3 75 l7 40 8 -35 c4 -19 5 -45 3 -57z m172
55 c-3 -8 -6 -5 -6 6 -1 11 2 17 5 13 3 -3 4 -12 1 -19z m-268 -70 c-10 -34
-14 -38 -17 -20 -4 27 20 105 26 80 2 -9 -2 -36 -9 -60z m242 11 c-6 -16 -10
-18 -10 -7 -1 22 12 55 16 42 2 -6 -1 -22 -6 -35z m1777 9 c-3 -7 -11 -13 -18
-13 -7 0 -15 6 -17 13 -3 7 4 12 17 12 13 0 20 -5 18 -12z m-102 -38 c23 0 7
-17 -21 -22 -20 -4 -25 -1 -25 14 0 14 5 18 16 14 9 -3 22 -6 30 -6z m74 -150
c0 -29 -4 -40 -15 -40 -11 0 -15 11 -15 40 0 29 4 40 15 40 11 0 15 -11 15
-40z m-57 3 c-13 -2 -33 -2 -45 0 -13 2 -3 4 22 4 25 0 35 -2 23 -4z m-2593
-298 c0 -8 -4 -15 -10 -15 -5 0 -7 7 -4 15 4 8 8 15 10 15 2 0 4 -7 4 -15z
m2584 0 c-4 -8 -8 -15 -10 -15 -2 0 -4 7 -4 15 0 8 4 15 10 15 5 0 7 -7 4 -15z
m-2531 -155 c-6 -21 -24 -23 -30 -3 -2 6 4 13 14 16 10 3 19 5 20 6 0 0 -1 -8
-4 -19z m324 -212 c-2 -13 -4 -3 -4 22 0 25 2 35 4 23 2 -13 2 -33 0 -45z
m-94 -705 c-7 -2 -19 -2 -25 0 -7 3 -2 5 12 5 14 0 19 -2 13 -5z m-7448 -1068
c-16 -14 -34 -25 -40 -25 -5 1 4 12 20 25 17 14 35 25 40 25 6 -1 -3 -12 -20
-25z m1703 -727 c7 -7 12 -16 12 -20 0 -13 -37 -9 -49 5 -20 24 14 38 37 15z
m-1611 -103 c-4 -8 -11 -15 -17 -15 -6 0 -6 7 2 20 14 22 24 19 15 -5z m-67
-145 c-6 -12 -14 -19 -18 -16 -3 4 0 12 6 18 7 7 13 23 13 38 2 22 2 23 6 3 2
-12 -1 -32 -7 -43z m1160 -541 c0 -37 -4 -58 -10 -54 -18 11 -12 115 7 115 2
0 3 -27 3 -61z"/>
<path d="M8030 6910 c0 -5 5 -10 10 -10 6 0 10 5 10 10 0 6 -4 10 -10 10 -5 0
-10 -4 -10 -10z"/>
<path d="M8605 7130 c-3 -5 -1 -10 4 -10 6 0 11 5 11 10 0 6 -2 10 -4 10 -3 0
-8 -4 -11 -10z"/>
<path d="M8552 6740 c0 -14 2 -19 5 -12 2 6 2 18 0 25 -3 6 -5 1 -5 -13z"/>
<path d="M6065 6590 c-3 -5 -1 -10 4 -10 6 0 11 5 11 10 0 6 -2 10 -4 10 -3 0
-8 -4 -11 -10z"/>
<path d="M6018 6583 c6 -2 18 -2 25 0 6 3 1 5 -13 5 -14 0 -19 -2 -12 -5z"/>
<path d="M5800 6501 c-38 -4 -55 -10 -55 -20 0 -16 43 -23 51 -9 3 5 19 6 35
3 36 -8 145 15 127 27 -14 8 -71 8 -158 -1z"/>
<path d="M6525 6457 c-11 -27 -11 -102 0 -107 13 -6 27 102 15 114 -6 6 -12 3
-15 -7z"/>
<path d="M5905 6425 l-40 -13 50 -1 c28 0 61 6 75 14 l25 14 -35 0 c-19 0 -53
-6 -75 -14z"/>
<path d="M5690 6410 c0 -5 -12 -10 -27 -10 -20 0 -24 -3 -16 -11 13 -13 50 -6
78 15 19 15 19 15 -7 16 -16 0 -28 -4 -28 -10z"/>
<path d="M5760 6378 c-17 -15 -19 -19 -7 -15 10 4 22 7 27 7 4 0 10 7 14 15 8
21 -4 18 -34 -7z"/>
<path d="M5710 6350 c-9 -6 -10 -10 -3 -10 6 0 15 5 18 10 8 12 4 12 -15 0z"/>
<path d="M10161 6334 c0 -11 3 -14 6 -6 3 7 2 16 -1 19 -3 4 -6 -2 -5 -13z"/>
<path d="M5645 6330 c-3 -5 1 -10 9 -10 8 0 18 5 21 10 3 6 -1 10 -9 10 -8 0
-18 -4 -21 -10z"/>
<path d="M6435 6330 c-3 -5 -3 -10 1 -10 4 0 0 -8 -9 -18 -11 -11 -17 -38 -18
-73 -1 -29 -8 -85 -15 -122 -8 -38 -14 -80 -13 -95 0 -24 1 -25 9 -7 4 11 18
70 30 130 12 61 26 123 31 139 5 16 9 37 9 47 0 20 -15 25 -25 9z"/>
<path d="M10336 6151 c-4 -7 -5 -15 -2 -18 9 -9 19 4 14 18 -4 11 -6 11 -12 0z"/>
<path d="M3981 5708 c0 -9 -4 -25 -7 -35 -5 -17 -5 -17 6 0 6 10 9 25 7 35 -4
15 -5 15 -6 0z"/>
<path d="M8340 5646 c0 -24 -4 -48 -10 -51 -16 -10 -11 -42 8 -47 13 -4 23
-31 40 -109 42 -187 53 -231 67 -263 7 -17 18 -51 25 -76 6 -25 18 -58 25 -75
7 -16 19 -47 25 -68 6 -20 20 -42 31 -47 23 -13 23 -12 0 44 -11 24 -27 75
-36 113 -9 37 -23 80 -31 95 -7 14 -14 35 -14 47 0 11 -4 30 -9 43 -25 66 -40
130 -46 193 -4 39 -13 77 -20 85 -7 8 -17 46 -22 84 -9 81 -33 104 -33 32z"/>
<path d="M10528 5615 c2 -33 6 -107 8 -165 2 -59 8 -106 14 -108 5 -2 10 1 10
7 0 6 9 11 20 11 19 0 20 7 20 120 l0 120 -34 0 c-33 0 -35 2 -39 38 -2 20 -2
10 1 -23z"/>
<path d="M9887 5633 c-3 -5 -8 -30 -12 -58 -4 -27 -11 -60 -16 -72 -5 -12 -4
-25 1 -28 11 -7 26 44 34 113 6 48 4 63 -7 45z"/>
<path d="M6516 5585 c-3 -9 -6 -44 -6 -78 1 -73 15 -59 22 20 5 54 -4 88 -16
58z"/>
<path d="M6588 5544 c-5 -4 -8 -30 -7 -58 0 -44 2 -48 10 -26 11 27 8 96 -3
84z"/>
<path d="M7206 5486 c3 -7 34 -26 69 -42 63 -28 76 -39 54 -46 -5 -2 -14 -20
-18 -41 -7 -29 -6 -37 5 -37 18 0 18 -20 -2 -48 -29 -42 29 -21 83 31 l33 31
6 -33 c7 -32 16 -34 20 -3 2 9 -2 19 -8 23 -6 4 8 10 31 14 22 4 41 11 41 17
0 6 11 8 25 4 l26 -7 -21 21 c-11 11 -20 26 -20 34 0 21 -59 53 -98 54 -18 0
-48 9 -66 20 -40 24 -168 30 -160 8z"/>
<path d="M8290 5438 c0 -19 2 -20 10 -8 13 19 13 30 0 30 -5 0 -10 -10 -10
-22z"/>
<path d="M3511 5434 c0 -11 3 -14 6 -6 3 7 2 16 -1 19 -3 4 -6 -2 -5 -13z"/>
<path d="M9830 5418 c0 -19 2 -20 10 -8 13 19 13 30 0 30 -5 0 -10 -10 -10
-22z"/>
<path d="M9992 5400 c0 -14 2 -19 5 -12 2 6 2 18 0 25 -3 6 -5 1 -5 -13z"/>
<path d="M8621 5294 c0 -11 3 -14 6 -6 3 7 2 16 -1 19 -3 4 -6 -2 -5 -13z"/>
<path d="M8320 5171 c0 -11 5 -23 10 -26 6 -3 10 3 10 14 0 11 -4 23 -10 26
-5 3 -10 -3 -10 -14z"/>
<path d="M8345 5101 c-3 -5 -1 -12 5 -16 5 -3 10 1 10 9 0 18 -6 21 -15 7z"/>
<path d="M7910 5032 c0 -5 6 -16 13 -27 16 -20 33 -5 23 20 -6 16 -36 21 -36
7z"/>
<path d="M7043 4990 c0 -25 2 -35 4 -22 2 12 2 32 0 45 -2 12 -4 2 -4 -23z"/>
<path d="M8965 4971 c-6 -11 9 -23 19 -14 9 9 7 23 -3 23 -6 0 -12 -4 -16 -9z"/>
<path d="M7044 4835 c0 -55 1 -76 3 -47 2 29 2 74 0 100 -2 26 -3 2 -3 -53z"/>
<path d="M9292 4837 c-7 -9 -12 -28 -10 -44 l3 -28 13 23 c7 13 12 33 10 44
-3 19 -4 20 -16 5z"/>
<path d="M9265 4727 c-4 -10 -5 -21 -1 -24 10 -10 18 4 13 24 -4 17 -4 17 -12
0z"/>
<path d="M8577 4684 c-4 -4 -7 -22 -7 -41 0 -23 5 -33 15 -33 15 0 19 10 15
45 -2 24 -14 38 -23 29z"/>
<path d="M8561 4574 c0 -11 3 -14 6 -6 3 7 2 16 -1 19 -3 4 -6 -2 -5 -13z"/>
<path d="M8617 4485 c-10 -7 -14 -15 -10 -18 12 -8 36 9 32 21 -3 7 -10 6 -22
-3z"/>
<path d="M8550 4442 c0 -22 3 -43 8 -45 9 -6 9 69 -1 79 -4 4 -7 -11 -7 -34z"/>
<path d="M10637 4166 c-8 -22 3 -77 14 -70 11 7 11 55 0 72 -7 11 -9 11 -14
-2z"/>
<path d="M10540 4148 c0 -7 5 -20 10 -28 8 -12 10 -9 10 13 0 15 -4 27 -10 27
-5 0 -10 -6 -10 -12z"/>
<path d="M10637 3947 c-4 -11 0 -32 10 -50 l17 -32 8 39 c10 45 3 74 -8 36
l-8 -25 -6 25 c-5 22 -7 23 -13 7z"/>
<path d="M10430 3830 c0 -5 5 -10 10 -10 6 0 10 5 10 10 0 6 -4 10 -10 10 -5
0 -10 -4 -10 -10z"/>
<path d="M10545 3770 c-3 -5 -1 -10 4 -10 6 0 11 5 11 10 0 6 -2 10 -4 10 -3
0 -8 -4 -11 -10z"/>
<path d="M10780 3478 c0 -24 5 -50 10 -58 7 -11 10 2 10 43 0 31 -4 57 -10 57
-5 0 -10 -19 -10 -42z"/>
<path d="M7825 3419 c-9 -17 -31 -37 -48 -44 -30 -14 -31 -14 -7 -15 14 0 36
7 48 16 21 14 23 14 32 -11 6 -14 10 -30 10 -34 0 -5 -39 -12 -87 -15 -79 -7
-161 -27 -188 -48 -5 -4 -46 -34 -90 -66 -44 -33 -93 -76 -110 -97 -16 -21
-41 -52 -55 -69 -93 -115 -159 -371 -147 -567 4 -58 12 -111 22 -128 8 -17 15
-39 15 -50 0 -19 63 -102 83 -110 15 -5 57 -48 57 -58 0 -12 49 -63 60 -63 6
0 10 -6 10 -14 0 -8 7 -13 16 -12 9 0 19 -5 21 -11 3 -8 -4 -13 -16 -13 -11 0
-22 -4 -25 -9 -4 -5 12 -7 36 -3 l43 5 -18 -24 c-9 -13 -20 -30 -23 -37 -10
-21 6 -64 26 -69 11 -3 20 -11 20 -18 0 -7 15 -25 33 -40 17 -14 40 -33 51
-42 29 -24 111 -70 216 -123 78 -40 107 -49 165 -53 108 -8 346 20 439 53 33
11 69 20 82 20 13 0 26 5 29 10 3 5 14 10 23 10 25 0 158 56 195 82 72 50 157
132 145 139 -7 4 -74 14 -148 24 -74 9 -155 21 -180 26 -25 6 -61 13 -80 18
-62 13 -151 60 -181 93 -23 27 -29 42 -29 83 0 89 37 116 187 134 109 13 433
14 528 1 39 -6 78 -11 89 -13 11 -1 20 5 22 16 1 10 10 30 19 44 10 15 20 57
24 103 l7 78 -45 6 c-101 14 -205 6 -331 -25 -158 -40 -246 -46 -331 -25 -55
14 -71 24 -116 70 -50 51 -53 58 -53 104 0 46 3 52 41 83 23 19 71 46 108 60
60 24 147 67 175 87 12 9 97 43 165 67 24 8 107 20 185 26 90 6 146 15 154 23
11 11 -10 14 -122 20 -168 9 -253 -2 -410 -55 -87 -30 -136 -41 -181 -41 -136
-1 -248 63 -261 149 -6 39 -4 44 40 91 25 27 66 60 91 73 25 13 45 26 45 29 0
6 -70 31 -90 32 -8 1 -27 -2 -41 -6 -21 -6 -33 -1 -62 23 -19 17 -42 47 -51
65 l-16 34 -51 -34 c-28 -19 -55 -34 -60 -34 -15 0 -48 42 -60 77 -13 41 -24
42 -44 2z m272 -615 c28 -4 44 -13 48 -24 3 -10 14 -25 25 -35 18 -16 18 -19
3 -51 -9 -19 -20 -34 -25 -34 -4 0 -8 -9 -8 -20 0 -36 -83 -20 -122 24 -16 17
-18 17 -18 3 0 -10 -3 -17 -7 -17 -21 1 -28 21 -32 87 l-3 71 28 5 c16 2 38 3
49 1 11 -2 39 -6 62 -10z m-587 -888 c0 -3 -4 -8 -10 -11 -5 -3 -10 -1 -10 4
0 6 5 11 10 11 6 0 10 -2 10 -4z"/>
<path d="M10720 3375 c0 -8 4 -15 10 -15 5 0 7 7 4 15 -4 8 -8 15 -10 15 -2 0
-4 -7 -4 -15z"/>
<path d="M10476 3323 c-4 -21 -11 -110 -17 -198 -6 -88 -14 -161 -19 -163 -5
-2 -3 -14 5 -26 32 -48 35 -201 6 -253 -7 -14 -10 -13 -21 8 -7 13 -16 26 -19
29 -3 3 -15 22 -26 43 -11 20 -22 37 -25 37 -3 0 -13 -14 -22 -31 -19 -33 -24
-79 -9 -79 5 0 23 -11 39 -25 22 -18 32 -22 35 -13 4 10 6 10 6 1 1 -7 7 -13
14 -13 7 0 18 -9 25 -20 17 -28 35 -25 30 4 -3 17 -1 23 8 19 8 -3 21 12 34
36 11 23 17 41 12 41 -17 0 -31 69 -21 106 6 19 7 43 4 54 -3 10 -1 38 5 60 8
29 8 45 1 54 -13 15 -15 50 -5 88 5 21 2 29 -10 34 -18 7 -23 84 -6 84 6 0 10
18 10 40 0 31 -4 40 -17 40 -14 0 -13 3 5 16 26 18 27 57 1 62 -12 2 -18 -7
-23 -35z"/>
<path d="M10680 3321 c0 -22 5 -41 10 -43 14 -4 27 -238 13 -238 -20 0 -32
-49 -26 -104 4 -39 2 -56 -6 -56 -7 0 -11 -26 -11 -77 0 -99 -6 -120 -36 -127
-29 -8 -32 -36 -4 -36 17 0 20 -7 20 -40 0 -22 5 -40 10 -40 6 0 10 15 10 34
0 19 5 38 11 41 7 5 9 -14 7 -57 l-3 -63 -53 3 c-44 3 -56 0 -71 -17 -10 -12
-23 -21 -30 -21 -6 0 -11 -17 -11 -40 0 -34 3 -40 20 -40 18 0 20 -6 19 -57
-1 -32 -5 -70 -10 -85 -5 -18 -3 -33 7 -45 19 -25 17 -51 -3 -55 -16 -3 -16
-4 0 -20 9 -9 17 -26 17 -37 0 -12 6 -21 15 -21 11 0 15 -11 15 -40 0 -36 3
-40 25 -40 l25 0 0 104 c0 96 2 105 20 111 11 3 20 11 20 16 0 5 9 9 20 9 24
0 28 -35 5 -44 -8 -3 -15 -12 -15 -20 0 -7 7 -16 15 -20 11 -4 15 -21 15 -67
0 -61 0 -61 22 -47 27 18 35 38 14 38 -13 0 -16 15 -16 90 0 57 -4 90 -11 90
-6 0 -9 12 -7 28 2 19 9 28 26 30 26 4 26 11 11 134 -8 62 -16 88 -25 88 -8 0
-14 -8 -14 -17 -1 -16 -2 -16 -15 1 -19 25 -19 36 0 36 8 0 15 9 15 20 0 17 7
20 40 20 39 0 40 1 40 36 0 31 -3 35 -22 32 -18 -2 -23 3 -29 32 -12 52 -13
127 -4 198 7 56 10 62 31 62 l24 0 0 141 c0 91 -4 138 -10 134 -5 -3 -10 -32
-10 -63 0 -118 -22 -165 -48 -107 -18 38 -15 156 4 194 16 32 13 61 -5 61 -5
0 -12 -10 -14 -22 -2 -13 -5 -4 -6 20 -1 30 -5 42 -16 42 -11 0 -15 -11 -15
-39z m40 -896 c0 -14 -4 -25 -10 -25 -5 0 -10 -18 -10 -40 l0 -40 -45 0 -45 0
0 40 c0 30 4 40 16 40 9 0 29 11 46 25 16 14 34 25 39 25 5 0 9 -11 9 -25z"/>
<path d="M9526 3205 c3 -33 8 -62 10 -64 9 -9 3 95 -6 109 -7 10 -8 -4 -4 -45z"/>
<path d="M10330 3160 c0 -22 5 -40 10 -40 6 0 10 18 10 40 0 22 -4 40 -10 40
-5 0 -10 -18 -10 -40z"/>
<path d="M10320 3067 c0 -14 -6 -27 -12 -30 -8 -2 -1 -10 15 -17 33 -16 34
-24 5 -37 -14 -6 -22 -19 -23 -39 -1 -16 -5 -37 -9 -46 -6 -13 -4 -18 8 -18
10 0 16 -9 16 -25 0 -22 4 -25 40 -25 34 0 40 3 40 21 0 11 4 18 9 14 5 -3 12
-1 16 5 4 6 -5 10 -19 10 -24 0 -26 4 -26 40 0 22 -4 40 -9 40 -5 0 -9 23 -8
51 2 43 -2 54 -20 66 -22 15 -23 14 -23 -10z"/>
<path d="M9536 3052 c-2 -4 -1 -14 5 -22 7 -12 9 -10 9 8 0 23 -5 28 -14 14z"/>
<path d="M10460 2550 c0 -5 9 -10 20 -10 11 0 20 5 20 10 0 6 -9 10 -20 10
-11 0 -20 -4 -20 -10z"/>
<path d="M10320 2505 c0 -22 4 -25 40 -25 l40 0 0 -40 c0 -29 4 -40 15 -40 11
0 15 11 15 39 0 22 -7 46 -15 55 -8 8 -15 19 -15 25 0 6 -18 11 -40 11 -36 0
-40 -2 -40 -25z"/>
<path d="M10793 2440 c0 -25 2 -35 4 -22 2 12 2 32 0 45 -2 12 -4 2 -4 -23z"/>
<path d="M9140 2306 c0 -8 5 -18 10 -21 6 -3 10 1 10 9 0 8 -4 18 -10 21 -5 3
-10 -1 -10 -9z"/>
<path d="M10300 2280 c0 -28 4 -40 14 -40 8 0 17 -12 21 -27 7 -26 8 -26 15
-8 5 11 9 41 9 68 1 46 0 47 -29 47 -28 0 -30 -2 -30 -40z"/>
<path d="M10393 2280 c0 -25 2 -35 4 -22 2 12 2 32 0 45 -2 12 -4 2 -4 -23z"/>
<path d="M10450 2237 c0 -1 9 -10 20 -20 19 -16 20 -15 30 3 10 18 7 20 -20
20 -16 0 -30 -1 -30 -3z"/>
<path d="M9185 2220 c3 -5 8 -10 11 -10 2 0 4 5 4 10 0 6 -5 10 -11 10 -5 0
-7 -4 -4 -10z"/>
<path d="M10225 2171 c-3 -5 -1 -12 5 -16 5 -3 10 1 10 9 0 18 -6 21 -15 7z"/>
<path d="M10012 2135 c-16 -34 -16 -118 -1 -92 6 10 8 25 5 34 -4 9 0 26 8 38
8 12 11 27 7 34 -5 8 -11 3 -19 -14z"/>
<path d="M10465 2075 c-4 -27 -12 -56 -17 -62 -7 -9 -7 -13 0 -13 7 0 11 -33
11 -87 0 -49 4 -101 10 -116 6 -16 11 -54 11 -84 0 -31 3 -53 7 -49 4 4 6 27
4 51 -1 25 2 45 7 45 12 0 3 312 -8 320 -4 3 -10 14 -12 25 -3 12 -8 0 -13
-30z"/>
<path d="M10241 2094 c0 -11 3 -14 6 -6 3 7 2 16 -1 19 -3 4 -6 -2 -5 -13z"/>
<path d="M10310 2095 c0 -8 9 -15 20 -15 11 0 20 2 20 5 0 2 -9 9 -20 15 -16
9 -20 8 -20 -5z"/>
<path d="M10201 2084 c0 -11 3 -14 6 -6 3 7 2 16 -1 19 -3 4 -6 -2 -5 -13z"/>
<path d="M10660 1960 c0 -29 4 -40 15 -40 11 0 15 11 15 40 0 29 -4 40 -15 40
-11 0 -15 -11 -15 -40z"/>
<path d="M10210 1935 c0 -8 7 -15 15 -15 8 0 15 7 15 15 0 8 -7 15 -15 15 -8
0 -15 -7 -15 -15z"/>
<path d="M10641 1904 c0 -11 3 -14 6 -6 3 7 2 16 -1 19 -3 4 -6 -2 -5 -13z"/>
<path d="M10740 1910 c0 -5 5 -10 10 -10 6 0 10 5 10 10 0 6 -4 10 -10 10 -5
0 -10 -4 -10 -10z"/>
<path d="M10790 1901 c0 -11 -5 -21 -10 -23 -6 -2 -12 -28 -14 -58 -2 -30 -1
-38 1 -17 3 24 9 37 19 37 10 0 14 12 14 40 0 22 -2 40 -5 40 -3 0 -5 -9 -5
-19z"/>
<path d="M10681 1883 c-10 -21 -2 -123 10 -123 5 0 9 32 9 70 0 73 -3 82 -19
53z"/>
<path d="M10620 1781 c0 -10 7 -21 15 -25 11 -4 15 1 15 19 0 16 -6 25 -15 25
-8 0 -15 -9 -15 -19z"/>
<path d="M10590 1730 c0 -16 -7 -55 -15 -87 -8 -31 -15 -84 -15 -116 0 -59 0
-59 23 -44 19 12 22 22 19 66 -3 41 -1 51 12 51 10 0 16 -13 19 -42 2 -29 4
-20 5 27 1 57 -1 66 -10 50 -11 -19 -11 -19 -18 0 -4 11 -5 44 -2 73 3 35 1
52 -7 52 -6 0 -11 -13 -11 -30z"/>
<path d="M10780 1750 c0 -5 5 -10 10 -10 6 0 10 5 10 10 0 6 -4 10 -10 10 -5
0 -10 -4 -10 -10z"/>
<path d="M10708 1723 c-20 -5 -25 -43 -5 -43 14 0 40 37 29 43 -4 2 -15 2 -24
0z"/>
<path d="M10322 1638 c-7 -7 -11 -36 -10 -67 l1 -56 7 45 7 45 1 -42 c1 -24 7
-43 12 -43 9 0 15 62 10 100 -3 23 -15 31 -28 18z"/>
<path d="M10466 1625 c-3 -8 -1 -25 4 -37 8 -20 9 -18 9 15 1 39 -3 47 -13 22z"/>
<path d="M10660 1480 c0 -22 -4 -40 -10 -40 -5 0 -10 -18 -10 -40 0 -29 4 -40
15 -40 12 0 15 16 15 80 0 44 -2 80 -5 80 -3 0 -5 -18 -5 -40z"/>
<path d="M10713 1480 c0 -25 2 -35 4 -22 2 12 2 32 0 45 -2 12 -4 2 -4 -23z"/>
<path d="M10320 1480 c0 -15 5 -20 18 -18 9 2 17 10 17 18 0 8 -8 16 -17 18
-13 2 -18 -3 -18 -18z"/>
<path d="M9184 1368 l-19 -23 23 19 c21 18 27 26 19 26 -2 0 -12 -10 -23 -22z"/>
<path d="M10430 1263 c0 -53 2 -94 5 -91 11 10 15 188 5 188 -6 0 -10 -38 -10
-97z"/>
<path d="M10599 1283 l4 -78 10 63 c9 61 5 92 -10 92 -4 0 -6 -35 -4 -77z"/>
<path d="M9135 1313 l-17 -28 23 22 c12 12 20 25 17 28 -3 3 -13 -7 -23 -22z"/>
<path d="M10545 1200 c-6 -69 -10 -80 -26 -80 -15 0 -19 -7 -19 -40 0 -22 5
-40 10 -40 6 0 4 -15 -5 -36 -8 -20 -12 -40 -9 -45 3 -5 2 -14 -2 -20 -4 -8
-9 -7 -15 2 -7 11 -9 11 -9 1 0 -7 -4 -11 -9 -8 -5 3 -12 -1 -15 -10 -5 -13
-9 -14 -20 -5 -11 9 -15 6 -20 -14 -10 -39 -44 -34 -48 8 -4 34 -11 -21 -25
-188 -6 -81 -8 -86 -14 -45 l-6 45 -1 -42 c-2 -54 -22 -57 -22 -3 0 22 -4 40
-10 40 -5 0 -10 13 -10 29 0 34 -26 49 -35 21 -3 -11 -1 -28 4 -39 6 -11 10
-44 10 -73 -2 -87 20 -127 41 -75 l9 22 7 -23 c6 -20 12 -23 40 -19 19 3 31 1
28 -4 -3 -5 -9 -7 -14 -4 -20 12 -18 -15 2 -29 34 -24 41 -20 35 19 -3 20 -1
37 5 41 7 5 9 1 5 -9 -5 -14 0 -17 32 -17 22 0 41 5 43 12 3 7 11 9 24 3 16
-7 17 -9 3 -12 -22 -5 -29 -35 -25 -103 2 -30 1 -38 -1 -17 -5 44 -13 46 -50
10 l-28 -28 -3 28 c-2 16 -9 27 -19 27 -13 0 -14 -15 -10 -105 3 -62 1 -103
-4 -99 -5 3 -9 14 -9 25 0 24 -16 25 -29 1 -8 -13 -10 -6 -11 32 0 44 -1 48
-14 31 -12 -17 -13 -17 -20 8 -10 43 -24 32 -37 -30 -7 -32 -14 -50 -17 -40
-2 9 -10 17 -19 17 -13 0 -15 -9 -11 -51 5 -45 3 -52 -18 -66 -13 -8 -24 -22
-24 -29 0 -8 -7 -14 -15 -14 -8 0 -15 7 -15 15 0 8 -4 15 -10 15 -13 0 -11 10
-18 -97 l-7 -93 353 0 352 0 0 280 0 280 -56 0 c-60 0 -84 14 -84 50 0 11 8
30 19 41 16 17 19 18 31 4 7 -8 25 -15 41 -15 27 0 29 3 29 40 0 22 -4 40 -8
40 -5 0 -8 123 -8 274 1 151 -2 278 -6 282 -16 15 -19 -7 -19 -117 1 -62 -3
-115 -8 -119 -5 -3 -11 -63 -14 -133 -5 -133 -12 -165 -21 -103 -3 20 -9 52
-12 72 -3 20 0 78 7 130 9 76 9 101 -1 122 -12 25 -13 26 -21 7 -4 -11 -8 -37
-8 -57 -1 -21 -5 -38 -10 -38 -5 0 -11 -18 -13 -40 -2 -22 0 -40 4 -40 5 0 8
-10 8 -22 0 -19 -2 -20 -10 -8 -7 10 -10 -21 -10 -97 0 -104 -2 -113 -19 -113
-17 0 -19 9 -17 130 1 72 -2 130 -6 130 -4 0 -11 12 -14 26 -4 17 -9 22 -14
14 -6 -9 -9 -9 -15 0 -4 7 -3 15 2 19 13 8 27 241 14 241 -5 0 -12 -36 -16
-80z m15 -256 c0 -8 -4 -12 -10 -9 -5 3 -10 10 -10 16 0 5 5 9 10 9 6 0 10 -7
10 -16z m-130 -94 c0 -16 -4 -30 -10 -30 -5 0 -10 14 -10 30 0 17 5 30 10 30
6 0 10 -13 10 -30z m217 -82 c-3 -7 -5 -2 -5 12 0 14 2 19 5 13 2 -7 2 -19 0
-25z m65 -48 c6 0 5 -6 -2 -15 -19 -23 -34 -3 -24 32 7 26 8 26 11 6 3 -13 9
-23 15 -23z m-335 -62 c-2 -13 -4 -3 -4 22 0 25 2 35 4 23 2 -13 2 -33 0 -45z
m33 -304 c0 -50 -17 -41 -21 10 -3 35 -1 42 8 34 7 -6 13 -26 13 -44z m-104
-56 c-3 -13 -6 -27 -6 -31 0 -5 -4 -5 -10 -2 -17 10 -12 55 6 55 12 0 15 -6
10 -22z m461 -40 c-2 -13 -4 -3 -4 22 0 25 2 35 4 23 2 -13 2 -33 0 -45z
m-507 -9 c0 -5 -4 -9 -10 -9 -5 0 -10 7 -10 16 0 8 5 12 10 9 6 -3 10 -10 10
-16z m170 -154 c10 -13 9 -15 -9 -15 -12 0 -21 6 -21 15 0 8 4 15 9 15 5 0 14
-7 21 -15z m-295 -5 c3 -5 1 -10 -4 -10 -6 0 -11 5 -11 10 0 6 2 10 4 10 3 0
8 -4 11 -10z m205 -20 c0 -5 -4 -10 -10 -10 -5 0 -10 5 -10 10 0 6 5 10 10 10
6 0 10 -4 10 -10z m-190 -30 c0 -5 -4 -10 -10 -10 -5 0 -10 5 -10 10 0 6 5 10
10 10 6 0 10 -4 10 -10z"/>
<path d="M9076 1238 c-14 -18 -23 -34 -21 -36 5 -5 54 50 55 61 0 14 -9 7 -34
-25z"/>
<path d="M10460 1085 c0 -19 5 -35 10 -35 6 0 10 16 10 35 0 19 -4 35 -10 35
-5 0 -10 -16 -10 -35z"/>
<path d="M10445 970 c-3 -5 -1 -10 4 -10 6 0 11 5 11 10 0 6 -2 10 -4 10 -3 0
-8 -4 -11 -10z"/>
<path d="M10240 809 c0 -5 9 -9 20 -9 11 0 20 2 20 4 0 2 -9 6 -20 9 -11 3
-20 1 -20 -4z"/>
<path d="M10295 790 c3 -5 10 -10 16 -10 5 0 9 5 9 10 0 6 -7 10 -16 10 -8 0
-12 -4 -9 -10z"/>
<path d="M10207 503 c-13 -12 -7 -23 13 -23 17 0 20 -7 21 -42 1 -26 4 -34 6
-19 11 55 -15 109 -40 84z"/>
<path d="M9792 55 c0 -16 2 -22 5 -12 2 9 2 23 0 30 -3 6 -5 -1 -5 -18z"/>
<path d="M9892 25 c0 -17 2 -22 5 -12 2 9 2 23 0 30 -3 6 -5 -1 -5 -18z"/>
</g>
</svg>
